# xmcd CD database file
#
# Track frame offsets:
#	150
#	16367
#	28506
#	41518
#	58363
#	71949
#	88109
#	104516
#	117395
#	144089
#	155180
#	174047
#	190445
#	208444
#	221522
#	238227
#	253254
#	266152
#
# Disc length: 3713 seconds
#
# Revision: 0
# Processed by: cddbd v1.5.1PL2 Copyright (c) Steve Scherf et al.
# Submitted via: CDex 1.50
#
DISCID=1d0e7f12
DTITLE=Brian Young - The Best Of Brian Young
DYEAR=2006
DGENRE=Country
TTITLE0=Thistles On The Hillside
TTITLE1=Have A Bloody Go
TTITLE2=Black Man Jacky Jacky
TTITLE3=No Indispensable Man
TTITLE4=Dark Eyed Brothers
TTITLE5=The Horse That Could Do Nothing Right
TTITLE6=Barbie Doll Song
TTITLE7=Home Made Didgeridoo
TTITLE8=Lost
TTITLE9=Wobbly Boot Hotel
TTITLE10=The House Where The Wind Blows Cold
TTITLE11=Song Of Maytown
TTITLE12=Walk Away
TTITLE13=Stan Coster The Man
TTITLE14=You Ride On
TTITLE15=The Whaler
TTITLE16=Please Forgive Me
TTITLE17=Migilo Man
EXTD=YEAR: 2006
EXTT0=
EXTT1=
EXTT2=
EXTT3=
EXTT4=
EXTT5=
EXTT6=
EXTT7=
EXTT8=
EXTT9=
EXTT10=
EXTT11=
EXTT12=
EXTT13=
EXTT14=
EXTT15=
EXTT16=
EXTT17=
PLAYORDER=
